<svg width="63" height="37" fill="none" xmlns="http://www.w3.org/2000/svg"><g clip-path="url(#a)"><path d="M1218.8 3c-15.65 0-15.65 14-31.19 14-15.54 0-15.65-14-31.2-14-15.54 0-15.65 14-31.19 14-15.65 0-15.65-14-31.31-14-15.65 0-15.65 14-31.19 14-15.65 0-15.65-14-31.2-14-15.65 0-15.65 14-31.19 14-15.547 0-15.982-14-31.526-14-15.652 0-15.652 14-31.195 14-15.544 0-15.761-14-31.305-14-15.652 0-15.652 14-31.195 14-15.653 0-15.653-14-31.305-14s-15.652 14-31.195 14c-15.653 0-15.652-14-31.196-14C765.87 3 765.652 17 750 17c-15.652 0-15.652-14-31.196-14-15.652 0-15.652 14-31.195 14-15.653 0-15.653-14-31.305-14s-15.652 14-31.195 14c-15.653 0-15.652-14-31.196-14-15.652 0-15.652 14-31.196 14-15.652 0-15.652-14-31.195-14-15.652 0-15.652 14-31.305 14-15.652 0-15.652-14-31.304-14s-15.652 14-31.304 14-15.652-14-31.305-14C390.652 3 390.652 17 375 17S359.348 3 343.696 3c-15.653 0-15.653 14-31.305 14S296.739 3 281.087 3s-15.652 14-31.196 14c-15.652 0-15.652-14-31.304-14s-15.652 14-31.304 14C171.63 17 171.63 3 155.978 3s-15.652 14-31.304 14S109.022 3 93.37 3C78.152 3 78.152 17 62.5 17 46.848 17 46.848 3 31.304 3 15.761 3 15.652 17 0 17v20h1250V17c-15.65 0-15.65-14-31.2-14Z" fill="#fff"/></g><defs><clipPath id="a"><path fill="#fff" d="M0 0h63v37H0z"/></clipPath></defs></svg>