<svg width="63" height="37" viewBox="0 0 63 37" fill="none" xmlns="http://www.w3.org/2000/svg">
<g clip-path="url(#clip0_33104_164)">
<path d="M1218.8 3C1203.15 3 1203.15 17 1187.61 17C1172.07 17 1171.96 3 1156.41 3C1140.87 3 1140.76 17 1125.22 17C1109.57 17 1109.57 3 1093.91 3C1078.26 3 1078.26 17 1062.72 17C1047.07 17 1047.07 3 1031.52 3C1015.87 3 1015.87 17 1000.33 17C984.783 17 984.348 3 968.804 3C953.152 3 953.152 17 937.609 17C922.065 17 921.848 3 906.304 3C890.652 3 890.652 17 875.109 17C859.456 17 859.456 3 843.804 3C828.152 3 828.152 17 812.609 17C796.956 17 796.957 3 781.413 3C765.87 3 765.652 17 750 17C734.348 17 734.348 3 718.804 3C703.152 3 703.152 17 687.609 17C671.956 17 671.956 3 656.304 3C640.652 3 640.652 17 625.109 17C609.456 17 609.457 3 593.913 3C578.261 3 578.261 17 562.717 17C547.065 17 547.065 3 531.522 3C515.87 3 515.87 17 500.217 17C484.565 17 484.565 3 468.913 3C453.261 3 453.261 17 437.609 17C421.957 17 421.957 3 406.304 3C390.652 3 390.652 17 375 17C359.348 17 359.348 3 343.696 3C328.043 3 328.043 17 312.391 17C296.739 17 296.739 3 281.087 3C265.435 3 265.435 17 249.891 17C234.239 17 234.239 3 218.587 3C202.935 3 202.935 17 187.283 17C171.63 17 171.63 3 155.978 3C140.326 3 140.326 17 124.674 17C109.022 17 109.022 3 93.3696 3C78.1522 3 78.1522 17 62.5 17C46.8478 17 46.8478 3 31.3043 3C15.7609 3 15.6522 17 0 17V37H1250V17C1234.35 17 1234.35 3 1218.8 3Z" fill="white"/>
</g>
<defs>
<clipPath id="clip0_33104_164">
<rect width="63" height="37" fill="white"/>
</clipPath>
</defs>
</svg>
